<svg xmlns="http://www.w3.org/2000/svg" id="Layer_1" data-name="Layer 1" viewBox="0 0 229.21 239.68"><defs><style>.cls-1{opacity:.25}.cls-2{fill:#1ae7e5}</style></defs><g class="cls-1"><path d="M165.91,357.75q-9.53.24-15.75-3.42a25.22,25.22,0,0,1-9.76-10.62,47.26,47.26,0,0,1-4.52-16.85,119.66,119.66,0,0,1,0-21.6,103.61,103.61,0,0,1,12.58-37.11,90.19,90.19,0,0,1,14.77-19.53,16.06,16.06,0,0,1,3.17,1.09,7.4,7.4,0,0,1,1.95,1.35,6.22,6.22,0,0,1,1,1.71,9.16,9.16,0,0,1-1.46,6.1q-2,3.42-3.91,7.32a124.42,124.42,0,0,0-8.06,21.24A107.81,107.81,0,0,0,152.48,306a79.77,79.77,0,0,0,.13,13.3,58.78,58.78,0,0,0,1.83,10.26,26.34,26.34,0,0,0,2.68,6.59c1,1.54,1.88,2.32,2.69,2.32s1.66-.57,2.56-1.71a25.41,25.41,0,0,0,2.57-4.15,53.14,53.14,0,0,0,3.41-7.45q2-5,4.15-11.59t4.28-14.29q2.07-7.68,3.78-15.5,3.42-15.61,7.32-35.28a300.65,300.65,0,0,1,11.48-41.13q2.43-9,6.1-19.78,2.94-9.27,7.45-21.61t10.37-26.73c0-.81.69-1.59,2.08-2.32s3-1.5,4.76-2.32q2.92-1.22,6.59-2.44a33.83,33.83,0,0,1,7.69-1.95,6.7,6.7,0,0,1,4.28.73,4.73,4.73,0,0,1,1.95,2.56,12.21,12.21,0,0,1,.49,3.54q.48,8.06.61,15.14t.36,12.45c.16,4.24.25,8.06.25,11.48a160.19,160.19,0,0,1-.73,18.18q-1,11.36-2.08,23.81t-1.95,24.29a148.44,148.44,0,0,0-.37,19.65,73.14,73.14,0,0,0,.37,7.69q.36,3.54.85,7,3.16-8.79,7.08-18.43t7.81-18.56q3.92-8.91,7.33-16.6T276,210.29q2.93-6.84,7.81-17.34t9.89-21q5-10.5,9.28-19.29t6.22-12.21a13,13,0,0,1,5-4.39,53.74,53.74,0,0,1,7.56-3.42,44.45,44.45,0,0,1,7.57-2.08c2.36-.4,3.95-.44,4.76-.12a10.31,10.31,0,0,1,4.52,2,9,9,0,0,1,1.59,1.71,10.62,10.62,0,0,1,.73,3.3,39.67,39.67,0,0,1-.24,7.2q-.5,5.87-2.81,17.82t-5.62,27.23q-3.29,15.26-7.08,32.59T318,256.31q-3.42,16.72-6,31.37t-3.3,24.66a74.58,74.58,0,0,0,1.47,19.77,35.65,35.65,0,0,0,2.2,7.08,19.82,19.82,0,0,0,3.9,6,15,15,0,0,0,5.86,3.79,18.35,18.35,0,0,0,8.06.73,48.89,48.89,0,0,1-12,6.1,36.3,36.3,0,0,1-11.48,2A23.77,23.77,0,0,1,296,355.92a21.58,21.58,0,0,1-7.81-5.86,23.74,23.74,0,0,1-4.64-9,33.2,33.2,0,0,1-1-11.59q.5-5.87,3.17-19.29t6.47-30.4q3.79-17,8.3-35.4t8.55-34.67q4-16.23,7-27.95t3.66-15.38c.32-2,.61-3.78.85-5.49a45.31,45.31,0,0,1,.86-4.52q-2.44,4.89-6,11.72T308,182.7q-3.9,7.81-7.93,16.23t-7.69,16.24q-6.11,12.69-12,26t-10.49,25.27q-4.65,12-7.7,21.48a75.72,75.72,0,0,0-3.53,14.65V306c0,1,0,2.12.12,3.42a16.86,16.86,0,0,0,.61,3.66l-9.77,7.57c-1.46.49-2.73.89-3.78,1.22a10.59,10.59,0,0,1-3.05.49q-5.62,0-8.55-5.86-2.93-5.39-5.37-21t-1.46-38.33q.48-11.22,1.58-22.7t2.2-22q1.09-10.48,2.07-19.65a151.88,151.88,0,0,0,1-15.75,53.49,53.49,0,0,0-.24-8.91q-.5-4-1-7.45-2.19,5.63-4.88,15.26t-5.62,21.37q-2.93,11.72-6,24.65t-5.86,24.91q-2.81,12-5.25,22.09t-3.9,16.24q-2.44,9.76-4.89,22.21a196.12,196.12,0,0,1-6.1,23.56,63.75,63.75,0,0,1-9.52,18.8A18.89,18.89,0,0,1,165.91,357.75Z" class="cls-2" transform="translate(-135.4 -130.16)"/></g><path d="M189.48,369.82q-9.53.24-15.75-3.42A25.25,25.25,0,0,1,164,355.78a47.27,47.27,0,0,1-4.51-16.85,119.66,119.66,0,0,1,0-21.6A103.33,103.33,0,0,1,172,280.22a90.8,90.8,0,0,1,14.77-19.54,16.43,16.43,0,0,1,3.17,1.1,7.47,7.47,0,0,1,2,1.35,6.26,6.26,0,0,1,1,1.7,9.12,9.12,0,0,1-1.46,6.11q-2,3.42-3.91,7.32a124.33,124.33,0,0,0-8.05,21.24,107.81,107.81,0,0,0-3.42,18.56,78.78,78.78,0,0,0,.12,13.3A60.72,60.72,0,0,0,178,341.62a26.31,26.31,0,0,0,2.69,6.59c1,1.54,1.87,2.32,2.68,2.32a3.57,3.57,0,0,0,2.56-1.71,24.75,24.75,0,0,0,2.57-4.15,53,53,0,0,0,3.42-7.45q2-5,4.15-11.59t4.27-14.29q2.07-7.68,3.78-15.5,3.42-15.61,7.33-35.28a301.06,301.06,0,0,1,11.47-41.14q2.45-9,6.11-19.77,2.92-9.27,7.44-21.61t10.38-26.73c0-.81.69-1.59,2.07-2.32s3-1.5,4.76-2.32c2-.81,4.15-1.62,6.6-2.44a33.58,33.58,0,0,1,7.69-1.95,6.68,6.68,0,0,1,4.27.73,4.69,4.69,0,0,1,1.95,2.56,11.88,11.88,0,0,1,.49,3.54q.48,8.05.61,15.14t.37,12.45c.16,4.23.24,8.06.24,11.47a158,158,0,0,1-.73,18.19q-1,11.35-2.08,23.81t-1.95,24.29a152,152,0,0,0-.37,19.65,76,76,0,0,0,.37,7.69c.24,2.36.53,4.68.85,7q3.18-8.79,7.09-18.43t7.81-18.56q3.9-8.91,7.32-16.6t5.37-12.82q2.94-6.82,7.82-17.33t9.88-21q5-10.49,9.28-19.28t6.23-12.21a12.78,12.78,0,0,1,5-4.39,51.68,51.68,0,0,1,7.57-3.42,44.2,44.2,0,0,1,7.57-2.08c2.35-.4,3.94-.44,4.76-.12a10.26,10.26,0,0,1,4.51,1.95,8.36,8.36,0,0,1,1.59,1.71,10.27,10.27,0,0,1,.73,3.3,39.67,39.67,0,0,1-.24,7.2q-.5,5.87-2.81,17.82t-5.61,27.22q-3.3,15.27-7.08,32.6t-7.2,34.05q-3.43,16.74-6,31.38t-3.29,24.66a74.61,74.61,0,0,0,1.46,19.77,35.65,35.65,0,0,0,2.2,7.08,20,20,0,0,0,3.91,6,14.82,14.82,0,0,0,5.86,3.79,18.3,18.3,0,0,0,8,.73,49.06,49.06,0,0,1-12,6.1,36.25,36.25,0,0,1-11.48,2A23.64,23.64,0,0,1,319.6,368a21.44,21.44,0,0,1-7.81-5.85,23.88,23.88,0,0,1-4.64-9,33.44,33.44,0,0,1-1-11.59q.49-5.87,3.18-19.29t6.47-30.4q3.78-17,8.3-35.4t8.54-34.67q4-16.23,7-28t3.66-15.38c.33-1.95.61-3.79.86-5.49a42.8,42.8,0,0,1,.85-4.52q-2.44,4.89-6,11.72t-7.44,14.65q-3.92,7.81-7.94,16.23t-7.69,16.24q-6.1,12.69-12,26t-10.5,25.27q-4.64,12-7.69,21.48a75.15,75.15,0,0,0-3.54,14.65v3.42q0,1.45.12,3.42a16.86,16.86,0,0,0,.61,3.66l-9.76,7.57c-1.47.48-2.73.89-3.79,1.22a10.54,10.54,0,0,1-3.05.49c-3.75,0-6.59-2-8.55-5.86q-2.92-5.38-5.37-21T251,269.23q.48-11.24,1.58-22.71t2.2-22q1.09-10.49,2.08-19.65a151.72,151.72,0,0,0,1-15.75,53.49,53.49,0,0,0-.24-8.91c-.33-2.69-.65-5.17-1-7.45q-2.19,5.63-4.88,15.26t-5.61,21.36q-2.94,11.73-6,24.66T234.27,259q-2.81,12-5.24,22.09t-3.91,16.24q-2.44,9.76-4.88,22.21a194.25,194.25,0,0,1-6.11,23.56,63.51,63.51,0,0,1-9.52,18.8A18.87,18.87,0,0,1,189.48,369.82Z" class="cls-2" transform="translate(-135.4 -130.16)"/></svg>